<?xml version="1.0" encoding="utf-8"?>
<svg width="282.828px" height="100px" viewBox="0 0 80 28.154" version="1.1" style="fill-rule:evenodd;clip-rule:evenodd;stroke-linejoin:round;stroke-miterlimit:2;" xmlns="http://www.w3.org/2000/svg">
  <g transform="matrix(0.986665, 0, 0, 0.986665, -231.506927, -771.751099)">
    <g id="ksitigarbha-icon.svg" transform="matrix(0.036785, 0, 0, 0.036785, 244.701004, 796.882568)">
      <g transform="matrix(1,0,0,1,-512,-512)">
        <g>
          <g transform="matrix(0.978339,0,0,1,13.9928,0)">
            <path d="M417.018,427.205C392.017,405.523 374.813,375.025 370.224,340.546L384.198,340.546C388.708,370.151 403.846,396.326 425.635,415.131L417.018,427.205ZM590.623,414.03C611.736,395.311 626.379,369.578 630.802,340.546L644.776,340.546C640.264,374.444 623.559,404.494 599.239,426.101L590.623,414.03ZM369.962,305.546C377.348,242.813 426.43,192.82 488.59,184.287L488.59,199.913C434.13,208.133 391.204,251.294 383.898,305.546L369.962,305.546ZM524.365,184.022C587.492,191.728 637.572,242.127 645.038,305.546L631.102,305.546C623.705,250.617 579.793,207.057 524.365,199.622L524.365,184.022Z" style="fill:rgb(252,217,151);"/>
          </g>
          <g transform="matrix(1,0,0,1,273,2)">
            <circle cx="77" cy="320" r="8" style="fill:rgb(252,217,151);"/>
          </g>
          <g transform="matrix(1,0,0,1,348,2)">
            <circle cx="77" cy="320" r="8" style="fill:rgb(252,217,151);"/>
          </g>
          <g transform="matrix(1,0,0,1,520,2)">
            <circle cx="77" cy="320" r="8" style="fill:rgb(252,217,151);"/>
          </g>
          <g transform="matrix(1,0,0,1,595,2)">
            <circle cx="77" cy="320" r="8" style="fill:rgb(252,217,151);"/>
          </g>
          <g transform="matrix(1,0,0,1,611,195)">
            <circle cx="77" cy="320" r="8" style="fill:rgb(252,217,151);"/>
          </g>
          <g transform="matrix(1,0,0,1,257,195)">
            <circle cx="77" cy="320" r="8" style="fill:rgb(252,217,151);"/>
          </g>
          <g transform="matrix(1,0,0,1,257,512.989)">
            <circle cx="77" cy="320" r="8" style="fill:rgb(252,217,151);"/>
          </g>
          <g transform="matrix(1,0,0,1,434,-171)">
            <circle cx="77" cy="320" r="8" style="fill:rgb(252,217,151);"/>
          </g>
          <path d="M519,170.511L519,240C519,240 516,244 511,244C506,244 503,240 503,240L503,170.511C503,170.511 506,167 511,167C516,167 519,170.511 519,170.511Z" style="fill:rgb(252,217,151);"/>
          <g transform="matrix(0.000470916,1,-1,0.000470916,862.759,-58.113)">
            <path d="M519,170.511L519,240C519,240 516,244 511,244C506,244 503,240 503,240L503,170.511C503,170.511 506,167 511,167C516,167 519,170.511 519,170.511Z" style="fill:rgb(252,217,151);"/>
          </g>
          <g transform="matrix(0.000470916,1,-1,0.000470916,569.759,-58.113)">
            <path d="M519,170.511L519,240C519,240 516,244 511,244C506,244 503,240 503,240L503,170.511C503,170.511 506,167 511,167C516,167 519,170.511 519,170.511Z" style="fill:rgb(252,217,151);"/>
          </g>
          <g transform="matrix(0.000381601,0.810337,-0.766154,0.000360795,820.75,420.348)">
            <path d="M519,170.511L519,240C519,240 516,244 511,244C506,244 503,240 503,240L503,170.511C503,170.511 506,167 511,167C516,167 519,170.511 519,170.511Z" style="fill:rgb(252,217,151);"/>
          </g>
          <g transform="matrix(0.000381601,0.810337,-0.467414,0.000220113,467.857,420.371)">
            <path d="M519,170.511L519,240C519,240 516,244 511,244C506,244 503,240 503,240L503,170.511C503,170.511 506,167 511,167C516,167 519,170.511 519,170.511Z" style="fill:rgb(252,217,151);"/>
          </g>
          <g transform="matrix(1.48649,0,0,1.15887,-230.108,-131.271)">
            <path d="M454.5,820C454.957,820 543.537,820.491 543.985,820.524C553.563,821.22 561.127,829.221 561.127,838.974C561.127,838.974 436,838.974 436,838.5C436,828.29 444.29,820 454.5,820Z" style="fill:rgb(252,217,151);"/>
          </g>
          <g transform="matrix(1.03894,0,0,1.00076,-6.97879,-32.6222)">
            <path d="M454.5,820C454.957,820 543.537,820.491 543.985,820.524C553.563,821.22 561.127,829.221 561.127,838.974C561.127,838.974 436,838.974 436,838.5C436,828.29 444.29,820 454.5,820Z" style="fill:rgb(252,217,151);"/>
          </g>
          <g transform="matrix(1.51046,0,0,-0.842741,-240.561,1378.04)">
            <path d="M454.5,820C454.957,820 543.537,820.491 543.985,820.524C553.563,821.22 561.127,829.221 561.127,838.974C561.127,838.974 436,838.974 436,838.5C436,828.29 444.29,820 454.5,820Z" style="fill:rgb(252,217,151);"/>
          </g>
          <path d="M546,699.002C546,699.002 543,707 541,707C526,707 523,725 523,725L523,775.989L499,775.989L499,725C499,725 496,707 481,707C479,707 477,699.002 477,699.002L546,699.002Z" style="fill:rgb(179,115,21);"/>
          <g transform="matrix(1,0,0,1,3,-2)">
            <circle cx="508.5" cy="269.5" r="16.5" style="fill:rgb(181,107,18);"/>
          </g>
        </g>
        <g id="Layer2">
          <g transform="matrix(1,0,0,1,-41,0)">
            <path d="M551,482C551,482 600,530 600,585.004C600,621 573.077,659 551,659C528.923,659 505,620 506,585C507.571,530.022 551,482 551,482Z" style="fill:rgb(254,216,153);"/>
          </g>
          <path d="M571,415C571,415 595,427 595,448L595,500L574,512L573,463C573,463 573,459 568,459C563,459 563,463 563,463L563.253,522.114L557,528L532,487C532,487 562,452 571,415Z" style="fill:rgb(181,107,18);"/>
          <g transform="matrix(-1.00118,0,0,1,1022.02,0)">
            <path d="M378,495C378,495 442,509 460,542C460,542 444,625 481,659C481,659 366,656 378,495Z" style="fill:rgb(181,107,18);"/>
          </g>
          <g transform="matrix(1.00118,0,0,1,-1.02047,0)">
            <path d="M378,495C378,495 442,509 460,542C460,542 444,625 481,659C481,659 366,656 378,495Z" style="fill:rgb(181,107,18);"/>
          </g>
          <g transform="matrix(1,0,0,1,0,-1)">
            <path d="M450,450L450,513L440,507L440,450L450,450Z" style="fill:rgb(181,107,18);"/>
          </g>
          <path d="M571,415C571,415 595,427 595,448L595,500L582,507L581,459C581,459 580,453 575,453C562,453 539,498 539,498L532,487C532,487 562,452 571,415Z" style="fill:rgb(254,216,153);"/>
          <g transform="matrix(1,0,0,1,3,1)">
            <path d="M557,410C548,445 521.184,477.718 521.184,477.718L509,464C509,464 478,490 462,526L459,521L459,476C459,476 503,462 549,407C549,407 557.249,409.032 557,410Z" style="fill:rgb(181,107,18);"/>
          </g>
          <path d="M557,410C520,466 462,488 462,488L462,476C462,476 503,462 549,407C549,407 557.551,409.166 557,410Z" style="fill:rgb(254,216,153);"/>
          <g transform="matrix(0.331056,-0.242746,0.464677,0.633723,-18.154,354.392)">
            <path d="M373.362,483.24L434.523,519.292C434.523,519.292 380.837,585.516 452,652C452.673,652.628 285.369,586.819 373.362,483.24Z" style="fill:rgb(254,216,153);"/>
          </g>
          <g transform="matrix(-0.377804,-0.260624,-0.446222,0.64685,1049.02,354.45)">
            <path d="M373.362,483.24L434.523,519.292C434.523,519.292 380.837,585.516 452,652C452.673,652.628 285.369,586.819 373.362,483.24Z" style="fill:rgb(254,216,153);"/>
          </g>
          <path d="M378,495C378,495 442,509 460,542C460,542 447,597 452,652C452,652 356,618 378,495Z" style="fill:rgb(254,216,153);"/>
          <g transform="matrix(-1,0,0,1,1022.01,0)">
            <path d="M378,495C378,495 442,509 460,542C460,542 447,597 452,652C452,652 356,618 378,495Z" style="fill:rgb(254,216,153);"/>
          </g>
          <path d="M528,389C528,389 530.5,395.5 532,398C533.339,400.232 537,404 537,404C503,451 461,462 461,462L461,451L450,446L450,449C450,449 441,453.757 441,458L441,507C441,507 431.684,500.545 430,500C430,500 428,457.799 428,451C428,431 442.873,417.485 450,416C498,406 495,389 495,389C495,389 513,397 528,389Z" style="fill:rgb(254,216,153);"/>
          <g transform="matrix(0.258065,0,0,0.253968,340.613,281.746)">
            <ellipse cx="513" cy="347.5" rx="31" ry="31.5" style="fill:rgb(254,216,153);"/>
          </g>
          <g transform="matrix(0.258065,0,0,0.253968,418.613,281.746)">
            <ellipse cx="513" cy="347.5" rx="31" ry="31.5" style="fill:rgb(254,216,153);"/>
          </g>
          <path d="M511,322C517.526,308 532.056,313.584 538.105,321C543,327 543,348 538,358C532.879,368.242 525,384 512,384C499,384 488.568,368.5 484,358C477.474,344 479,330 484.895,321C490.138,312.994 504.474,308 511,322Z" style="fill:rgb(254,216,153);"/>
          <g transform="matrix(-0.000378039,1,-1.00019,-0.000378111,801.168,24.1191)">
            <path d="M280.5,294C278.994,299.001 279.998,311 282,314.999C285.749,322.491 294.004,324.995 298.005,328.993C288.347,328.993 266.005,329.005 263.998,311.006C263.02,302.234 268.992,294.004 268.992,294.004C268.992,294.004 276.525,294 280.5,294Z" style="fill:rgb(254,216,153);"/>
          </g>
          <g transform="matrix(-0.000378039,1,1.00019,0.000378111,222.05,23.8703)">
            <path d="M280.5,294C278.994,299.001 279.998,311 282,314.999C285.749,322.491 294.004,324.995 298.005,328.993C288.347,328.993 266.005,329.005 263.998,311.006C263.02,302.234 268.992,294.004 268.992,294.004C268.992,294.004 276.525,294 280.5,294Z" style="fill:rgb(254,216,153);"/>
          </g>
          <g transform="matrix(-1,-0.000306262,0.000306262,-1,921.896,677.14)">
            <path d="M449.996,327.002C449.996,327.002 459.998,333.999 460,341C460.001,343.208 458.208,345 456,345C453.792,345 452,343.208 452,341C452,337.1 449.996,327.002 449.996,327.002Z" style="fill:rgb(254,216,153);"/>
          </g>
          <g transform="matrix(0.999571,0.000306131,0.000306262,-1,100.097,676.86)">
            <path d="M449.996,327.002C449.996,327.002 459.998,333.999 460,341C460.001,343.208 458.208,345 456,345C453.792,345 452,343.208 452,341C452,337.1 449.996,327.002 449.996,327.002Z" style="fill:rgb(254,216,153);"/>
          </g>
        </g>
      </g>
    </g>
    <g transform="matrix(0.207332, 0, 0, 0.207332, 225.86702, 744.261841)">
      <path d="M149.219,205.484L406.766,205.484C409.953,205.484 413.01,206.755 415.266,209.005C417.516,211.26 418.786,214.318 418.786,217.505L418.786,282.495C418.786,285.682 417.516,288.74 415.266,290.995C413.01,293.245 409.953,294.516 406.766,294.516L149.219,294.516C142.583,294.516 137.198,289.13 137.198,282.495L137.198,217.505C137.198,210.87 142.583,205.484 149.219,205.484Z" style="fill:rgb(255,189,89);fill-opacity:0.37;fill-rule:nonzero;"/>
    </g>
    <g transform="matrix(0.207332, 0, 0, 0.207332, 256.391724, 799.722839)">
      <g>
        <g>
          <path d="M25.438,-2.437C25.896,-2.437 26.297,-2.609 26.646,-2.958C27.005,-3.318 27.188,-3.734 27.188,-4.208L30.021,-4.208C30.021,-2.234 29.094,-0.833 27.25,0C26.708,0.25 26.125,0.375 25.5,0.375C23.875,0.375 22.604,-0.271 21.688,-1.562L11.333,-16.229C10.042,-15.854 8.646,-15.667 7.146,-15.667L5.896,-15.667L5.896,-0.062L2.688,-0.062L2.688,-34.271L5.771,-34.271L5.771,-18.667L7.896,-18.667C10.271,-18.708 12.13,-19.547 13.479,-21.187C14.271,-22.146 15.417,-23.917 16.917,-26.5C17.458,-27.51 18.734,-30.104 20.75,-34.271L24.5,-34.271C24.083,-33.562 23.604,-32.687 23.063,-31.646C22.521,-30.604 22.146,-29.875 21.938,-29.458C21.854,-29.292 21.568,-28.74 21.083,-27.812C20.609,-26.896 20.271,-26.25 20.063,-25.875C19.854,-25.5 19.51,-24.901 19.042,-24.083C18.583,-23.276 18.193,-22.63 17.875,-22.146C17.568,-21.672 17.188,-21.109 16.729,-20.458C16.271,-19.802 15.818,-19.229 15.375,-18.729C14.943,-18.229 14.5,-17.792 14.042,-17.417L24.063,-3.187C24.438,-2.687 24.896,-2.437 25.438,-2.437Z" style="fill-rule: nonzero; fill: rgb(255, 255, 255);"/>
        </g>
      </g>
    </g>
    <g transform="matrix(0.207332, 0, 0, 0.207332, 263.068909, 799.722839)">
      <g>
        <g>
          <path d="M19.167,-6.771C19.167,-4.297 18.333,-2.464 16.667,-1.271C15,-0.089 12.781,0.5 10.021,0.5C6.896,0.5 4.073,-0.458 1.563,-2.375L2.938,-4.521C5.49,-2.922 7.979,-2.125 10.396,-2.125C14.323,-2.125 16.292,-3.672 16.292,-6.771C16.292,-8.729 15.146,-10.187 12.854,-11.146C12.313,-11.396 11.464,-11.719 10.313,-12.125C9.156,-12.526 8.234,-12.88 7.542,-13.187C6.859,-13.505 6.125,-13.937 5.333,-14.479C4.542,-15.021 3.943,-15.693 3.542,-16.5C3.135,-17.318 2.938,-18.292 2.938,-19.417C2.938,-21.302 3.635,-22.776 5.042,-23.833C6.443,-24.901 8.188,-25.437 10.271,-25.437C11.406,-25.437 12.625,-25.292 13.917,-25C15.208,-24.708 16.146,-24.354 16.729,-23.937L16.167,-21.375C13.625,-22.375 11.531,-22.875 9.896,-22.875C8.729,-22.875 7.771,-22.562 7.021,-21.937C6.271,-21.312 5.896,-20.469 5.896,-19.417C5.896,-18.708 6.083,-18.068 6.458,-17.5C6.833,-16.943 7.229,-16.526 7.646,-16.25C8.063,-15.984 8.625,-15.708 9.333,-15.417C9.792,-15.208 10.594,-14.875 11.75,-14.417C12.901,-13.958 13.818,-13.562 14.5,-13.229C15.193,-12.896 15.943,-12.422 16.75,-11.812C17.568,-11.198 18.172,-10.479 18.563,-9.646C18.964,-8.812 19.167,-7.854 19.167,-6.771Z" style="fill-rule: nonzero; fill: rgb(255, 255, 255);"/>
        </g>
      </g>
    </g>
    <g transform="matrix(0.207332, 0, 0, 0.207332, 267.680511, 799.722839)">
      <g>
        <g>
          <path d="M1.938,-31.833C1.521,-32.25 1.313,-32.75 1.313,-33.333C1.313,-33.917 1.505,-34.417 1.896,-34.833C2.297,-35.26 2.792,-35.479 3.375,-35.479C3.969,-35.479 4.484,-35.26 4.917,-34.833C5.359,-34.417 5.583,-33.917 5.583,-33.333C5.583,-32.792 5.359,-32.297 4.917,-31.854C4.484,-31.422 3.969,-31.208 3.375,-31.208C2.833,-31.208 2.354,-31.417 1.938,-31.833ZM6.646,0.5C5.396,0.5 4.323,0.063 3.438,-0.812C2.563,-1.687 2.125,-2.755 2.125,-4.021L2.125,-25.062L4.896,-25.062L4.896,-4.021C4.896,-3.547 5.068,-3.13 5.417,-2.771C5.776,-2.422 6.188,-2.25 6.646,-2.25C7.229,-2.25 7.708,-2.5 8.083,-3L10.396,-1.5C9.438,-0.167 8.188,0.5 6.646,0.5Z" style="fill-rule: nonzero; fill: rgb(255, 255, 255);"/>
        </g>
      </g>
    </g>
    <g transform="matrix(0.207332, 0, 0, 0.207332, 270.135742, 799.722839)">
      <g>
        <g>
          <path d="M8.896,0.5C4.714,0.5 2.625,-2.047 2.625,-7.146L2.625,-31.271L5.396,-31.271L5.396,-24.937L13.292,-24.937L13.292,-22.187L5.396,-22.187L5.396,-7.146C5.396,-3.797 6.646,-2.125 9.146,-2.125C10.021,-2.125 10.875,-2.427 11.708,-3.042C12.552,-3.651 13.208,-4.333 13.667,-5.083L15.667,-3.562C14.25,-0.854 11.99,0.5 8.896,0.5Z" style="fill-rule: nonzero; fill: rgb(255, 255, 255);"/>
        </g>
      </g>
    </g>
    <g transform="matrix(0.207332, 0, 0, 0.207332, 273.929016, 799.722839)">
      <g>
        <g>
          <path d="M1.938,-31.833C1.521,-32.25 1.313,-32.75 1.313,-33.333C1.313,-33.917 1.505,-34.417 1.896,-34.833C2.297,-35.26 2.792,-35.479 3.375,-35.479C3.969,-35.479 4.484,-35.26 4.917,-34.833C5.359,-34.417 5.583,-33.917 5.583,-33.333C5.583,-32.792 5.359,-32.297 4.917,-31.854C4.484,-31.422 3.969,-31.208 3.375,-31.208C2.833,-31.208 2.354,-31.417 1.938,-31.833ZM6.646,0.5C5.396,0.5 4.323,0.063 3.438,-0.812C2.563,-1.687 2.125,-2.755 2.125,-4.021L2.125,-25.062L4.896,-25.062L4.896,-4.021C4.896,-3.547 5.068,-3.13 5.417,-2.771C5.776,-2.422 6.188,-2.25 6.646,-2.25C7.229,-2.25 7.708,-2.5 8.083,-3L10.396,-1.5C9.438,-0.167 8.188,0.5 6.646,0.5Z" style="fill-rule: nonzero; fill: rgb(255, 255, 255);"/>
        </g>
      </g>
    </g>
    <g transform="matrix(0.207332, 0, 0, 0.207332, 276.384399, 799.722839)">
      <g>
        <g>
          <path d="M8.146,6.146C8.146,3.755 8.896,1.813 10.396,0.313C7.854,-0.312 5.823,-1.844 4.313,-4.292C2.813,-6.734 2.063,-9.609 2.063,-12.917C2.063,-16.583 3.177,-19.594 5.417,-21.958C7.651,-24.318 10.568,-25.5 14.167,-25.5C15.083,-25.5 17.151,-25.333 20.375,-25L23,-25L23,5.646C23,8.271 22.318,10.333 20.958,11.833C19.594,13.344 17.667,14.104 15.167,14.104C13.083,14.104 11.385,13.339 10.083,11.813C8.792,10.281 8.146,8.396 8.146,6.146ZM4.708,-12.854C4.708,-9.922 5.375,-7.401 6.708,-5.292C8.042,-3.177 9.964,-2.125 12.479,-2.125C14.354,-2.125 16.135,-2.854 17.833,-4.312C19.526,-5.781 20.375,-7.333 20.375,-8.958L20.375,-22.562C17.151,-22.771 15.167,-22.875 14.417,-22.875C11.443,-22.875 9.083,-21.943 7.333,-20.083C5.583,-18.219 4.708,-15.812 4.708,-12.854ZM15.417,11.396C18.427,11.396 20.083,9.542 20.375,5.833L20.375,-3.437C18.609,-1.687 16.313,-0.083 13.479,1.375C11.672,2.292 10.771,3.88 10.771,6.146C10.771,7.646 11.188,8.896 12.021,9.896C12.865,10.896 14,11.396 15.417,11.396Z" style="fill-rule: nonzero; fill: rgb(255, 255, 255);"/>
        </g>
      </g>
    </g>
    <g transform="matrix(0.207332, 0, 0, 0.207332, 282.009216, 799.722839)">
      <g>
        <g>
          <path d="M23.063,-4.021C23.063,-3.589 23.25,-3.187 23.625,-2.812C24,-2.437 24.396,-2.25 24.813,-2.25C25.396,-2.25 25.875,-2.521 26.25,-3.062L28.521,-1.5C27.755,-0.167 26.521,0.5 24.813,0.5C23.646,0.5 22.651,0.125 21.833,-0.625C21.026,-1.375 20.542,-2.292 20.375,-3.375C18.859,-0.792 16.313,0.5 12.729,0.5C9.339,0.5 6.714,-0.708 4.854,-3.125C2.99,-5.552 2.063,-8.651 2.063,-12.417C2.063,-16.208 3.104,-19.323 5.188,-21.771C7.281,-24.214 10.13,-25.437 13.729,-25.437C15.979,-25.437 18.172,-25.292 20.313,-25L23.063,-25L23.063,-4.021ZM20.313,-22.437C19.63,-22.437 18.589,-22.505 17.188,-22.646C15.797,-22.797 14.667,-22.875 13.792,-22.875C10.943,-22.875 8.75,-21.906 7.208,-19.979C5.667,-18.062 4.896,-15.583 4.896,-12.542C4.896,-9.609 5.563,-7.135 6.896,-5.125C8.229,-3.125 10.172,-2.125 12.729,-2.125C14.896,-2.125 16.698,-2.792 18.146,-4.125C19.589,-5.469 20.313,-7.229 20.313,-9.396L20.313,-22.437Z" style="fill-rule: nonzero; fill: rgb(255, 255, 255);"/>
        </g>
      </g>
    </g>
    <g transform="matrix(0.207332, 0, 0, 0.207332, 288.374451, 799.722839)">
      <g>
        <g>
          <path d="M16.729,-22.437C15.438,-22.687 14.333,-22.812 13.417,-22.812C10.818,-22.812 8.604,-21.177 6.771,-17.917L6.771,0L4.021,0L4.021,-17.667C4.021,-20.344 3.344,-22.354 2,-23.687L3.688,-25.312C4.99,-24.354 5.917,-22.896 6.458,-20.937C8.167,-23.937 10.609,-25.437 13.792,-25.437C14.5,-25.437 15.479,-25.312 16.729,-25.062L16.729,-22.437Z" style="fill-rule: nonzero; fill: rgb(255, 255, 255);"/>
        </g>
      </g>
    </g>
    <g transform="matrix(0.207332, 0, 0, 0.207332, 292.466675, 799.722839)">
      <g>
        <g>
          <path d="M11.979,0.5C8.255,0.5 5.156,0.167 2.688,-0.5L2.688,-36.417L5.458,-36.417L5.458,-21.687C7.208,-24.187 9.714,-25.437 12.979,-25.437C16.396,-25.437 19.031,-24.234 20.896,-21.833C22.755,-19.427 23.688,-16.354 23.688,-12.604C23.688,-8.755 22.635,-5.609 20.542,-3.167C18.458,-0.719 15.604,0.5 11.979,0.5ZM5.458,-2.562L8.083,-2.25C8.833,-2.167 10.109,-2.125 11.917,-2.125C14.75,-2.125 16.938,-3.073 18.479,-4.979C20.031,-6.88 20.813,-9.359 20.813,-12.417C20.813,-15.375 20.135,-17.854 18.792,-19.854C17.458,-21.865 15.521,-22.875 12.979,-22.875C10.964,-22.875 9.255,-22.26 7.854,-21.042C6.464,-19.833 5.667,-18.292 5.458,-16.417L5.458,-2.562Z" style="fill-rule: nonzero; fill: rgb(255, 255, 255);"/>
        </g>
      </g>
    </g>
    <g transform="matrix(0.207332, 0, 0, 0.207332, 298.091492, 799.722839)">
      <g>
        <g>
          <path d="M19.292,-17.417C19.292,-21.135 17.417,-23 13.667,-23C11.776,-23 10.229,-22.562 9.021,-21.687C7.813,-20.812 6.625,-19.552 5.458,-17.917L5.458,-0.125L2.688,-0.125L2.688,-36.542L5.458,-36.542L5.458,-21.187C7.542,-24.146 10.276,-25.625 13.667,-25.625C19.26,-25.625 22.063,-22.927 22.063,-17.542L22.063,-4.146C22.063,-3.672 22.234,-3.255 22.583,-2.896C22.943,-2.547 23.333,-2.375 23.75,-2.375C24.375,-2.375 24.854,-2.625 25.188,-3.125L27.521,-1.625C26.63,-0.292 25.375,0.375 23.75,0.375C22.542,0.375 21.49,-0.068 20.604,-0.958C19.729,-1.859 19.292,-2.922 19.292,-4.146L19.292,-17.417Z" style="fill-rule: nonzero; fill: rgb(255, 255, 255);"/>
        </g>
      </g>
    </g>
    <g transform="matrix(0.207332, 0, 0, 0.207332, 304.249237, 799.722839)">
      <g>
        <g>
          <path d="M23.063,-4.021C23.063,-3.589 23.25,-3.187 23.625,-2.812C24,-2.437 24.396,-2.25 24.813,-2.25C25.396,-2.25 25.875,-2.521 26.25,-3.062L28.521,-1.5C27.755,-0.167 26.521,0.5 24.813,0.5C23.646,0.5 22.651,0.125 21.833,-0.625C21.026,-1.375 20.542,-2.292 20.375,-3.375C18.859,-0.792 16.313,0.5 12.729,0.5C9.339,0.5 6.714,-0.708 4.854,-3.125C2.99,-5.552 2.063,-8.651 2.063,-12.417C2.063,-16.208 3.104,-19.323 5.188,-21.771C7.281,-24.214 10.13,-25.437 13.729,-25.437C15.979,-25.437 18.172,-25.292 20.313,-25L23.063,-25L23.063,-4.021ZM20.313,-22.437C19.63,-22.437 18.589,-22.505 17.188,-22.646C15.797,-22.797 14.667,-22.875 13.792,-22.875C10.943,-22.875 8.75,-21.906 7.208,-19.979C5.667,-18.062 4.896,-15.583 4.896,-12.542C4.896,-9.609 5.563,-7.135 6.896,-5.125C8.229,-3.125 10.172,-2.125 12.729,-2.125C14.896,-2.125 16.698,-2.792 18.146,-4.125C19.589,-5.469 20.313,-7.229 20.313,-9.396L20.313,-22.437Z" style="fill-rule: nonzero; fill: rgb(255, 255, 255);"/>
        </g>
      </g>
    </g>
    <g transform="matrix(0.207332, 0, 0, 0.207332, 267.79007, 809.384644)">
      <g>
        <g>
          <path d="M12.917,-4.812C12.734,-3.214 12.146,-1.979 11.146,-1.104C10.146,-0.229 8.818,0.208 7.167,0.208C5.375,0.208 3.938,-0.427 2.854,-1.708C1.781,-3 1.25,-4.719 1.25,-6.875L1.25,-8.333C1.25,-9.75 1.5,-10.99 2,-12.062C2.5,-13.13 3.208,-13.948 4.125,-14.521C5.052,-15.089 6.13,-15.375 7.354,-15.375C8.964,-15.375 10.255,-14.922 11.229,-14.021C12.198,-13.13 12.76,-11.885 12.917,-10.292L10.917,-10.292C10.734,-11.5 10.354,-12.375 9.771,-12.917C9.198,-13.458 8.396,-13.729 7.354,-13.729C6.073,-13.729 5.068,-13.255 4.333,-12.312C3.609,-11.365 3.25,-10.026 3.25,-8.292L3.25,-6.812C3.25,-5.172 3.589,-3.865 4.271,-2.896C4.964,-1.922 5.927,-1.437 7.167,-1.437C8.276,-1.437 9.13,-1.687 9.729,-2.187C10.323,-2.687 10.719,-3.562 10.917,-4.812L12.917,-4.812Z" style="fill-rule: nonzero; fill: rgb(181, 107, 18);"/>
        </g>
      </g>
    </g>
    <g transform="matrix(0.207332, 0, 0, 0.207332, 270.668274, 809.384644)">
      <g>
        <g>
          <path d="M3.396,-9.917C4.24,-10.958 5.354,-11.479 6.729,-11.479C9.104,-11.479 10.302,-10.135 10.333,-7.458L10.333,0L8.396,0L8.396,-7.458C8.396,-8.276 8.208,-8.88 7.833,-9.271C7.469,-9.656 6.906,-9.854 6.146,-9.854C5.521,-9.854 4.969,-9.687 4.5,-9.354C4.026,-9.021 3.656,-8.583 3.396,-8.042L3.396,0L1.458,0L1.458,-16L3.396,-16L3.396,-9.917Z" style="fill-rule: nonzero; fill: rgb(181, 107, 18);"/>
        </g>
      </g>
    </g>
    <g transform="matrix(0.207332, 0, 0, 0.207332, 273.10379, 809.384644)">
      <g>
        <g>
          <path d="M8.417,0C8.302,-0.219 8.214,-0.615 8.146,-1.187C7.255,-0.255 6.188,0.208 4.938,0.208C3.823,0.208 2.917,-0.104 2.208,-0.729C1.5,-1.365 1.146,-2.167 1.146,-3.125C1.146,-4.302 1.589,-5.214 2.479,-5.854C3.365,-6.505 4.625,-6.833 6.25,-6.833L8.125,-6.833L8.125,-7.729C8.125,-8.396 7.922,-8.927 7.521,-9.333C7.115,-9.734 6.521,-9.937 5.729,-9.937C5.047,-9.937 4.469,-9.76 4,-9.417C3.542,-9.068 3.313,-8.646 3.313,-8.146L1.375,-8.146C1.375,-8.714 1.568,-9.255 1.958,-9.771C2.359,-10.297 2.901,-10.714 3.583,-11.021C4.276,-11.323 5.031,-11.479 5.854,-11.479C7.146,-11.479 8.156,-11.151 8.896,-10.5C9.63,-9.859 10.01,-8.969 10.042,-7.833L10.042,-2.646C10.042,-1.604 10.172,-0.776 10.438,-0.167L10.438,0L8.417,0ZM5.229,-1.479C5.823,-1.479 6.396,-1.63 6.938,-1.937C7.479,-2.255 7.875,-2.667 8.125,-3.167L8.125,-5.479L6.604,-5.479C4.24,-5.479 3.063,-4.781 3.063,-3.396C3.063,-2.797 3.26,-2.323 3.667,-1.979C4.068,-1.646 4.589,-1.479 5.229,-1.479Z" style="fill-rule: nonzero; fill: rgb(181, 107, 18);"/>
        </g>
      </g>
    </g>
    <g transform="matrix(0.207332, 0, 0, 0.207332, 275.509125, 809.384644)">
      <g>
        <g>
          <path d="M6.917,-9.542C6.625,-9.594 6.302,-9.625 5.958,-9.625C4.693,-9.625 3.839,-9.083 3.396,-8L3.396,0L1.458,0L1.458,-11.271L3.333,-11.271L3.375,-9.979C4,-10.979 4.896,-11.479 6.063,-11.479C6.438,-11.479 6.719,-11.427 6.917,-11.333L6.917,-9.542Z" style="fill-rule: nonzero; fill: rgb(181, 107, 18);"/>
        </g>
      </g>
    </g>
    <g transform="matrix(0.207332, 0, 0, 0.207332, 277.005402, 809.384644)">
      <g>
        <g>
          <path d="M3.563,0L1.625,0L1.625,-11.271L3.563,-11.271L3.563,0ZM1.479,-14.271C1.479,-14.573 1.568,-14.833 1.75,-15.042C1.943,-15.26 2.229,-15.375 2.604,-15.375C2.979,-15.375 3.26,-15.26 3.458,-15.042C3.651,-14.833 3.75,-14.568 3.75,-14.25C3.75,-13.943 3.651,-13.687 3.458,-13.479C3.26,-13.271 2.979,-13.167 2.604,-13.167C2.229,-13.167 1.943,-13.271 1.75,-13.479C1.568,-13.687 1.479,-13.948 1.479,-14.271Z" style="fill-rule: nonzero; fill: rgb(181, 107, 18);"/>
        </g>
      </g>
    </g>
    <g transform="matrix(0.207332, 0, 0, 0.207332, 278.078705, 809.384644)">
      <g>
        <g>
          <path d="M4.083,-14L4.083,-11.271L6.188,-11.271L6.188,-9.792L4.083,-9.792L4.083,-2.792C4.083,-2.344 4.172,-2.005 4.354,-1.771C4.547,-1.547 4.865,-1.437 5.313,-1.437C5.531,-1.437 5.839,-1.479 6.229,-1.562L6.229,0C5.729,0.135 5.234,0.208 4.75,0.208C3.885,0.208 3.234,-0.047 2.792,-0.562C2.359,-1.089 2.146,-1.833 2.146,-2.792L2.146,-9.792L0.104,-9.792L0.104,-11.271L2.146,-11.271L2.146,-14L4.083,-14Z" style="fill-rule: nonzero; fill: rgb(181, 107, 18);"/>
        </g>
      </g>
    </g>
    <g transform="matrix(0.207332, 0, 0, 0.207332, 279.523224, 809.384644)">
      <g>
        <g>
          <path d="M8.417,0C8.302,-0.219 8.214,-0.615 8.146,-1.187C7.255,-0.255 6.188,0.208 4.938,0.208C3.823,0.208 2.917,-0.104 2.208,-0.729C1.5,-1.365 1.146,-2.167 1.146,-3.125C1.146,-4.302 1.589,-5.214 2.479,-5.854C3.365,-6.505 4.625,-6.833 6.25,-6.833L8.125,-6.833L8.125,-7.729C8.125,-8.396 7.922,-8.927 7.521,-9.333C7.115,-9.734 6.521,-9.937 5.729,-9.937C5.047,-9.937 4.469,-9.76 4,-9.417C3.542,-9.068 3.313,-8.646 3.313,-8.146L1.375,-8.146C1.375,-8.714 1.568,-9.255 1.958,-9.771C2.359,-10.297 2.901,-10.714 3.583,-11.021C4.276,-11.323 5.031,-11.479 5.854,-11.479C7.146,-11.479 8.156,-11.151 8.896,-10.5C9.63,-9.859 10.01,-8.969 10.042,-7.833L10.042,-2.646C10.042,-1.604 10.172,-0.776 10.438,-0.167L10.438,0L8.417,0ZM5.229,-1.479C5.823,-1.479 6.396,-1.63 6.938,-1.937C7.479,-2.255 7.875,-2.667 8.125,-3.167L8.125,-5.479L6.604,-5.479C4.24,-5.479 3.063,-4.781 3.063,-3.396C3.063,-2.797 3.26,-2.323 3.667,-1.979C4.068,-1.646 4.589,-1.479 5.229,-1.479Z" style="fill-rule: nonzero; fill: rgb(181, 107, 18);"/>
        </g>
      </g>
    </g>
    <g transform="matrix(0.207332, 0, 0, 0.207332, 281.928619, 809.384644)">
      <g>
        <g>
          <path d="M11,-5.521C11,-3.797 10.604,-2.406 9.813,-1.354C9.021,-0.312 7.958,0.208 6.625,0.208C5.208,0.208 4.109,-0.297 3.333,-1.312L3.229,0L1.458,0L1.458,-16L3.396,-16L3.396,-10.042C4.172,-11 5.24,-11.479 6.604,-11.479C7.979,-11.479 9.052,-10.958 9.833,-9.917C10.609,-8.885 11,-7.479 11,-5.687L11,-5.521ZM9.083,-5.729C9.083,-7.047 8.823,-8.062 8.313,-8.771C7.813,-9.49 7.083,-9.854 6.125,-9.854C4.859,-9.854 3.948,-9.26 3.396,-8.083L3.396,-3.208C3.979,-2.026 4.896,-1.437 6.146,-1.437C7.073,-1.437 7.797,-1.792 8.313,-2.5C8.823,-3.219 9.083,-4.297 9.083,-5.729Z" style="fill-rule: nonzero; fill: rgb(181, 107, 18);"/>
        </g>
      </g>
    </g>
    <g transform="matrix(0.207332, 0, 0, 0.207332, 284.409119, 809.384644)">
      <g>
        <g>
          <rect x="1.625" y="-16" width="1.938" height="16" style="fill-rule: nonzero; fill: rgb(181, 107, 18);"/>
        </g>
      </g>
    </g>
    <g transform="matrix(0.207332, 0, 0, 0.207332, 285.482422, 809.384644)">
      <g>
        <g>
          <path d="M6.146,0.208C4.615,0.208 3.375,-0.292 2.417,-1.292C1.458,-2.302 0.979,-3.651 0.979,-5.333L0.979,-5.687C0.979,-6.797 1.188,-7.792 1.604,-8.667C2.031,-9.552 2.63,-10.24 3.396,-10.729C4.172,-11.229 5.005,-11.479 5.896,-11.479C7.365,-11.479 8.505,-10.99 9.313,-10.021C10.13,-9.062 10.542,-7.687 10.542,-5.896L10.542,-5.083L2.896,-5.083C2.922,-3.969 3.25,-3.073 3.875,-2.396C4.5,-1.714 5.292,-1.375 6.25,-1.375C6.927,-1.375 7.505,-1.51 7.979,-1.792C8.448,-2.068 8.859,-2.437 9.208,-2.896L10.396,-1.979C9.448,-0.521 8.031,0.208 6.146,0.208ZM5.896,-9.896C5.115,-9.896 4.464,-9.609 3.938,-9.042C3.406,-8.484 3.083,-7.693 2.958,-6.667L8.604,-6.667L8.604,-6.812C8.547,-7.797 8.281,-8.552 7.813,-9.083C7.339,-9.625 6.698,-9.896 5.896,-9.896Z" style="fill-rule: nonzero; fill: rgb(181, 107, 18);"/>
        </g>
      </g>
    </g>
    <g transform="matrix(0.207332, 0, 0, 0.207332, 288.91983, 809.384644)">
      <g>
        <g>
          <path d="M12.25,-13.521L7.375,-13.521L7.375,0L5.375,0L5.375,-13.521L0.521,-13.521L0.521,-15.167L12.25,-15.167L12.25,-13.521Z" style="fill-rule: nonzero; fill: rgb(181, 107, 18);"/>
        </g>
      </g>
    </g>
    <g transform="matrix(0.207332, 0, 0, 0.207332, 291.558075, 809.384644)">
      <g>
        <g>
          <path d="M6.917,-9.542C6.625,-9.594 6.302,-9.625 5.958,-9.625C4.693,-9.625 3.839,-9.083 3.396,-8L3.396,0L1.458,0L1.458,-11.271L3.333,-11.271L3.375,-9.979C4,-10.979 4.896,-11.479 6.063,-11.479C6.438,-11.479 6.719,-11.427 6.917,-11.333L6.917,-9.542Z" style="fill-rule: nonzero; fill: rgb(181, 107, 18);"/>
        </g>
      </g>
    </g>
    <g transform="matrix(0.207332, 0, 0, 0.207332, 293.05484, 809.384644)">
      <g>
        <g>
          <path d="M8.417,-1.125C7.667,-0.234 6.568,0.208 5.125,0.208C3.917,0.208 3,-0.135 2.375,-0.833C1.75,-1.542 1.427,-2.573 1.417,-3.937L1.417,-11.271L3.354,-11.271L3.354,-4C3.354,-2.292 4.047,-1.437 5.438,-1.437C6.906,-1.437 7.885,-1.984 8.375,-3.083L8.375,-11.271L10.292,-11.271L10.292,0L8.458,0L8.417,-1.125Z" style="fill-rule: nonzero; fill: rgb(181, 107, 18);"/>
        </g>
      </g>
    </g>
    <g transform="matrix(0.207332, 0, 0, 0.207332, 295.492065, 809.384644)">
      <g>
        <g>
          <path d="M8.021,-3C8.021,-3.51 7.823,-3.917 7.438,-4.208C7.047,-4.5 6.359,-4.75 5.375,-4.958C4.401,-5.167 3.63,-5.417 3.063,-5.708C2.49,-6 2.068,-6.344 1.792,-6.75C1.51,-7.151 1.375,-7.63 1.375,-8.187C1.375,-9.104 1.76,-9.88 2.542,-10.521C3.333,-11.156 4.333,-11.479 5.542,-11.479C6.818,-11.479 7.854,-11.146 8.646,-10.479C9.448,-9.823 9.854,-8.984 9.854,-7.958L7.917,-7.958C7.917,-8.484 7.688,-8.937 7.229,-9.312C6.781,-9.698 6.219,-9.896 5.542,-9.896C4.844,-9.896 4.297,-9.74 3.896,-9.437C3.505,-9.13 3.313,-8.734 3.313,-8.25C3.313,-7.776 3.49,-7.422 3.854,-7.187C4.229,-6.948 4.896,-6.719 5.854,-6.5C6.813,-6.292 7.589,-6.031 8.188,-5.729C8.781,-5.437 9.229,-5.083 9.521,-4.667C9.813,-4.25 9.958,-3.734 9.958,-3.125C9.958,-2.125 9.552,-1.318 8.75,-0.708C7.943,-0.094 6.896,0.208 5.604,0.208C4.698,0.208 3.901,0.047 3.208,-0.271C2.51,-0.589 1.969,-1.031 1.583,-1.604C1.193,-2.187 1,-2.812 1,-3.479L2.917,-3.479C2.958,-2.823 3.214,-2.312 3.688,-1.937C4.172,-1.562 4.813,-1.375 5.604,-1.375C6.339,-1.375 6.922,-1.521 7.354,-1.812C7.797,-2.104 8.021,-2.5 8.021,-3Z" style="fill-rule: nonzero; fill: rgb(181, 107, 18);"/>
        </g>
      </g>
    </g>
    <g transform="matrix(0.207332, 0, 0, 0.207332, 297.772552, 809.384644)">
      <g>
        <g>
          <path d="M4.083,-14L4.083,-11.271L6.188,-11.271L6.188,-9.792L4.083,-9.792L4.083,-2.792C4.083,-2.344 4.172,-2.005 4.354,-1.771C4.547,-1.547 4.865,-1.437 5.313,-1.437C5.531,-1.437 5.839,-1.479 6.229,-1.562L6.229,0C5.729,0.135 5.234,0.208 4.75,0.208C3.885,0.208 3.234,-0.047 2.792,-0.562C2.359,-1.089 2.146,-1.833 2.146,-2.792L2.146,-9.792L0.104,-9.792L0.104,-11.271L2.146,-11.271L2.146,-14L4.083,-14Z" style="fill-rule: nonzero; fill: rgb(181, 107, 18);"/>
        </g>
      </g>
    </g>
  </g>
</svg>